@startuml
abstract "Protocol" as C_0018182339080401046621
abstract C_0018182339080401046621 {
+~Protocol() = default : void
..
{abstract} +send(const char * data) = 0 : void
__
}
class "QProtocol" as C_0007258646515313362181
class C_0007258646515313362181 {
+send(const char * data) : void
__
}
class "ShutProtocol" as C_0002376441575263961422
class C_0002376441575263961422 {
+send(const char * data) : void
__
}
class "ModbusProtocol" as C_0011601201801728325318
class C_0011601201801728325318 {
+send(const char * data) : void
__
}
abstract "ProtocolFactory" as C_0009710668080765331156
abstract C_0009710668080765331156 {
+~ProtocolFactory() : void
..
{abstract} +createProtocol() = 0 : Protocol *
+sendData(const char * data) : void
__
}
class "UPSModelName1" as C_0001986085043519865939
class C_0001986085043519865939 {
+createProtocol() : Protocol *
__
}
class "UPSModelName2" as C_0015450852741109391994
class C_0015450852741109391994 {
+createProtocol() : Protocol *
__
}
class "UPSModelName3" as C_0016187170553774926198
class C_0016187170553774926198 {
+createProtocol() : Protocol *
__
}
C_0018182339080401046621 <|-- C_0007258646515313362181

C_0018182339080401046621 <|-- C_0002376441575263961422

C_0018182339080401046621 <|-- C_0011601201801728325318

C_0009710668080765331156 ..> C_0018182339080401046621
C_0001986085043519865939 ..> C_0018182339080401046621
C_0009710668080765331156 <|-- C_0001986085043519865939

C_0015450852741109391994 ..> C_0018182339080401046621
C_0009710668080765331156 <|-- C_0015450852741109391994

C_0016187170553774926198 ..> C_0018182339080401046621
C_0009710668080765331156 <|-- C_0016187170553774926198

note left of C_0009710668080765331156: Factory entrance

'Generated with clang-uml, version 0.5.4-14-ga36f4ca
'LLVM version Ubuntu clang version 14.0.0-1ubuntu1.1
@enduml
